<?xml version="1.0" encoding="utf-8"?>
<!-- Generator: Adobe Illustrator 16.2.0, SVG Export Plug-In . SVG Version: 6.00 Build 0)  -->
<!DOCTYPE svg PUBLIC "-//W3C//DTD SVG 1.1//EN" "http://www.w3.org/Graphics/SVG/1.1/DTD/svg11.dtd">
<svg version="1.1" id="svg__app" xmlns="http://www.w3.org/2000/svg" xmlns:xlink="http://www.w3.org/1999/xlink" x="0px"
	 y="0px" width="34.828px" height="58.719px" viewBox="0 0 34.828 58.719" enable-background="new 0 0 34.828 58.719"
	 xml:space="preserve">
<path fill="none" stroke="#f7600e" stroke-width="1.9892" stroke-miterlimit="10" d="M33.852,54.904
	c0,1.557-1.262,2.819-2.819,2.819H3.849c-1.557,0-2.819-1.262-2.819-2.819V3.85c0-1.557,1.262-2.819,2.819-2.819h27.184
	c1.557,0,2.819,1.262,2.819,2.819V54.904z"/>
<circle cx="17.44" cy="51.258" r="1.492" fill="#f7600e"/>
<path d="M24.9,6.998c0,0.549-0.445,0.995-0.995,0.995h-12.93c-0.549,0-0.995-0.445-0.995-0.995l0,0c0-0.549,0.445-0.995,0.995-0.995
	h12.93C24.455,6.003,24.9,6.449,24.9,6.998L24.9,6.998z" fill="#f7600e"/>
</svg>
