<?xml version="1.0" encoding="utf-8"?>
<!-- Generator: Adobe Illustrator 16.2.0, SVG Export Plug-In . SVG Version: 6.00 Build 0)  -->
<!DOCTYPE svg PUBLIC "-//W3C//DTD SVG 1.1//EN" "http://www.w3.org/Graphics/SVG/1.1/DTD/svg11.dtd">
<svg version="1.1" id="svg__arrowdown" xmlns="http://www.w3.org/2000/svg" xmlns:xlink="http://www.w3.org/1999/xlink" x="0px" y="0px"
	 width="36px" height="36px" viewBox="0 0 500 500" enable-background="new 0 0 500 500" xml:space="preserve">
<g fill="#ffffff">
	<path d="M500,250C500,112.143,387.857,0,250,0S0,112.143,0,250s112.143,250,250,250C387.857,500,500,387.857,500,250z M35,250
		c0-118.571,96.429-215,215-215s215,96.429,215,215s-96.429,215-215,215S35,368.571,35,250z"/>
	<path d="M335.918,234.898c3.367-3.367,5.103-7.857,5.103-12.348s-1.735-8.979-5.103-12.347c-6.836-6.837-17.959-6.837-24.795,0
		l-61.225,61.225l-61.225-61.225c-6.836-6.837-17.959-6.837-24.796,0c-6.836,6.837-6.836,17.959,0,24.796l73.572,73.571
		c3.265,3.266,7.755,5.103,12.347,5.103s9.081-1.837,12.347-5.103L335.918,234.898z"/>
</g>
</svg>
