<?xml version="1.0" encoding="utf-8"?>
<!-- Generator: Adobe Illustrator 16.2.0, SVG Export Plug-In . SVG Version: 6.00 Build 0)  -->
<!DOCTYPE svg PUBLIC "-//W3C//DTD SVG 1.1//EN" "http://www.w3.org/Graphics/SVG/1.1/DTD/svg11.dtd">
<svg version="1.1" id="Isolation_Mode" xmlns="http://www.w3.org/2000/svg" xmlns:xlink="http://www.w3.org/1999/xlink" x="0px"
	 y="0px" width="48px" height="48px" viewBox="0 0 48 48" enable-background="new 0 0 48 48" xml:space="preserve">
<path fill="#F872A3" d="M48.002,24c0,13.254-10.746,24-24.001,24S0,37.253,0,24C0,10.744,10.746,0,24.001,0S48.002,10.744,48.002,24
	"/>
<path fill="#FFFFFF" d="M37.821,18.161c-0.376-0.89-0.842-1.747-1.384-2.548c-0.535-0.794-1.152-1.541-1.829-2.219
	c-0.679-0.678-1.426-1.295-2.219-1.831c-0.802-0.543-1.66-1.006-2.549-1.383c-0.906-0.381-1.855-0.678-2.819-0.874
	C26.033,9.103,25.019,9,24.001,9c-1.015,0-2.033,0.104-3.021,0.307c-0.964,0.195-1.912,0.492-2.818,0.874
	c-0.889,0.377-1.747,0.84-2.548,1.383c-0.795,0.536-1.542,1.153-2.22,1.831c-0.677,0.678-1.293,1.425-1.83,2.219
	c-0.542,0.801-1.008,1.658-1.382,2.548c-0.384,0.906-0.679,1.855-0.877,2.819c-0.201,0.987-0.304,2.003-0.304,3.019
	c0,1.018,0.103,2.034,0.304,3.022c0.198,0.964,0.493,1.912,0.877,2.818c0.374,0.889,0.84,1.748,1.382,2.55
	c0.537,0.792,1.153,1.538,1.83,2.218c0.678,0.678,1.425,1.293,2.22,1.83c0.801,0.541,1.659,1.007,2.548,1.383
	c0.906,0.384,1.854,0.677,2.818,0.875C21.968,38.898,22.986,39,24.001,39c1.017,0,2.032-0.102,3.02-0.305
	c0.964-0.198,1.913-0.491,2.819-0.875c0.889-0.376,1.747-0.842,2.549-1.383c0.793-0.537,1.54-1.152,2.219-1.83
	c0.677-0.68,1.294-1.425,1.829-2.218c0.542-0.803,1.008-1.661,1.384-2.55c0.383-0.906,0.677-1.854,0.875-2.818
	C38.898,26.033,39,25.016,39,23.999c0-1.016-0.102-2.032-0.304-3.019C38.499,20.016,38.204,19.067,37.821,18.161 M24.001,11.19
	c3.243,0,6.203,1.209,8.461,3.197c-0.032,0.049-1.856,2.828-6.692,4.638c-2.19-4.023-4.595-7.219-4.788-7.474
	C21.95,11.317,22.96,11.19,24.001,11.19 M20.935,11.562c-0.001,0.001-0.003,0.002-0.003,0.002s-0.015,0.004-0.039,0.009
	C20.906,11.569,20.92,11.567,20.935,11.562 M18.535,12.414c0.17,0.229,2.54,3.44,4.757,7.381c-6.15,1.636-11.488,1.571-11.827,1.565
	C12.298,17.391,14.962,14.101,18.535,12.414 M14.474,32.56c-2.04-2.27-3.282-5.271-3.282-8.562c0-0.136,0.005-0.271,0.01-0.404
	c0.226,0.004,6.555,0.148,13.151-1.826c0.367,0.719,0.719,1.449,1.039,2.177c-0.169,0.048-0.337,0.099-0.505,0.153
	c-6.912,2.234-10.418,8.455-10.418,8.455S14.473,32.558,14.474,32.56 M24.001,36.81c-2.97,0-5.697-1.02-7.871-2.715l-0.001,0.004
	c0,0-0.119-0.088-0.288-0.225c0.094,0.077,0.193,0.145,0.289,0.22c0.024-0.05,2.489-5.365,10.051-7.998
	c0.028-0.012,0.057-0.021,0.085-0.028c1.803,4.684,2.547,8.607,2.736,9.727C27.466,36.448,25.775,36.81,24.001,36.81 M31.159,34.625
	c-0.13-0.774-0.813-4.532-2.494-9.15c4.136-0.661,7.72,0.473,7.984,0.559C36.078,29.603,34.034,32.682,31.159,34.625 M27.885,23.453
	c-0.091-0.22-0.182-0.438-0.276-0.662c-0.267-0.626-0.554-1.248-0.852-1.857c5.059-2.064,7.112-5.035,7.138-5.07
	c1.795,2.182,2.882,4.97,2.911,8.009C36.621,23.832,32.286,22.899,27.885,23.453"/>
<path fill="#F872A3" d="M48.002,24c0,13.254-10.746,24-24.001,24S0,37.253,0,24C0,10.744,10.746,0,24.001,0S48.002,10.744,48.002,24
	"/>
<path fill="#FFFFFF" d="M37.821,18.161c-0.376-0.89-0.842-1.747-1.384-2.548c-0.535-0.794-1.152-1.541-1.829-2.219
	c-0.679-0.678-1.426-1.295-2.219-1.831c-0.802-0.543-1.66-1.006-2.549-1.383c-0.906-0.381-1.855-0.678-2.819-0.874
	C26.033,9.103,25.019,9,24.001,9c-1.015,0-2.033,0.104-3.021,0.307c-0.964,0.195-1.912,0.492-2.818,0.874
	c-0.889,0.377-1.747,0.84-2.548,1.383c-0.795,0.536-1.542,1.153-2.22,1.831c-0.677,0.678-1.293,1.425-1.83,2.219
	c-0.542,0.801-1.008,1.658-1.382,2.548c-0.384,0.906-0.679,1.855-0.877,2.819c-0.201,0.987-0.304,2.003-0.304,3.019
	c0,1.018,0.103,2.034,0.304,3.022c0.198,0.964,0.493,1.912,0.877,2.818c0.374,0.889,0.84,1.748,1.382,2.55
	c0.537,0.792,1.153,1.538,1.83,2.218c0.678,0.678,1.425,1.293,2.22,1.83c0.801,0.541,1.659,1.007,2.548,1.383
	c0.906,0.384,1.854,0.677,2.818,0.875C21.968,38.898,22.986,39,24.001,39c1.017,0,2.032-0.102,3.02-0.305
	c0.964-0.198,1.913-0.491,2.819-0.875c0.889-0.376,1.747-0.842,2.549-1.383c0.793-0.537,1.54-1.152,2.219-1.83
	c0.677-0.68,1.294-1.425,1.829-2.218c0.542-0.803,1.008-1.661,1.384-2.55c0.383-0.906,0.677-1.854,0.875-2.818
	C38.898,26.033,39,25.016,39,23.999c0-1.016-0.102-2.032-0.304-3.019C38.499,20.016,38.204,19.067,37.821,18.161 M24.001,11.19
	c3.243,0,6.203,1.209,8.461,3.197c-0.032,0.049-1.856,2.828-6.692,4.638c-2.19-4.023-4.595-7.219-4.788-7.474
	C21.95,11.317,22.96,11.19,24.001,11.19 M20.935,11.562c-0.001,0.001-0.003,0.002-0.003,0.002s-0.015,0.004-0.039,0.009
	C20.906,11.569,20.92,11.567,20.935,11.562 M18.535,12.414c0.17,0.229,2.54,3.44,4.757,7.381c-6.15,1.636-11.488,1.571-11.827,1.565
	C12.298,17.391,14.962,14.101,18.535,12.414 M14.474,32.56c-2.04-2.27-3.282-5.271-3.282-8.562c0-0.136,0.005-0.271,0.01-0.404
	c0.226,0.004,6.555,0.148,13.151-1.826c0.367,0.719,0.719,1.449,1.039,2.177c-0.169,0.048-0.337,0.099-0.505,0.153
	c-6.912,2.234-10.418,8.455-10.418,8.455S14.473,32.558,14.474,32.56 M24.001,36.81c-2.97,0-5.697-1.02-7.871-2.715l-0.001,0.004
	c0,0-0.119-0.088-0.288-0.225c0.094,0.077,0.193,0.145,0.289,0.22c0.024-0.05,2.489-5.365,10.051-7.998
	c0.028-0.012,0.057-0.021,0.085-0.028c1.803,4.684,2.547,8.607,2.736,9.727C27.466,36.448,25.775,36.81,24.001,36.81 M31.159,34.625
	c-0.13-0.774-0.813-4.532-2.494-9.15c4.136-0.661,7.72,0.473,7.984,0.559C36.078,29.603,34.034,32.682,31.159,34.625 M27.885,23.453
	c-0.091-0.22-0.182-0.438-0.276-0.662c-0.267-0.626-0.554-1.248-0.852-1.857c5.059-2.064,7.112-5.035,7.138-5.07
	c1.795,2.182,2.882,4.97,2.911,8.009C36.621,23.832,32.286,22.899,27.885,23.453"/>
<path fill="#F872A3" d="M48.002,24c0,13.254-10.746,24-24.001,24S0,37.253,0,24C0,10.744,10.746,0,24.001,0S48.002,10.744,48.002,24
	"/>
<path fill="#FFFFFF" d="M37.821,18.161c-0.376-0.89-0.842-1.747-1.384-2.548c-0.535-0.794-1.152-1.541-1.829-2.219
	c-0.679-0.678-1.426-1.295-2.219-1.831c-0.802-0.543-1.66-1.006-2.549-1.383c-0.906-0.381-1.855-0.678-2.819-0.874
	C26.033,9.103,25.019,9,24.001,9c-1.015,0-2.033,0.104-3.021,0.307c-0.964,0.195-1.912,0.492-2.818,0.874
	c-0.889,0.377-1.747,0.84-2.548,1.383c-0.795,0.536-1.542,1.153-2.22,1.831c-0.677,0.678-1.293,1.425-1.83,2.219
	c-0.542,0.801-1.008,1.658-1.382,2.548c-0.384,0.906-0.679,1.855-0.877,2.819c-0.201,0.987-0.304,2.003-0.304,3.019
	c0,1.018,0.103,2.034,0.304,3.022c0.198,0.964,0.493,1.912,0.877,2.818c0.374,0.889,0.84,1.748,1.382,2.55
	c0.537,0.792,1.153,1.538,1.83,2.218c0.678,0.678,1.425,1.293,2.22,1.83c0.801,0.541,1.659,1.007,2.548,1.383
	c0.906,0.384,1.854,0.677,2.818,0.875C21.968,38.898,22.986,39,24.001,39c1.017,0,2.032-0.102,3.02-0.305
	c0.964-0.198,1.913-0.491,2.819-0.875c0.889-0.376,1.747-0.842,2.549-1.383c0.793-0.537,1.54-1.152,2.219-1.83
	c0.677-0.68,1.294-1.425,1.829-2.218c0.542-0.803,1.008-1.661,1.384-2.55c0.383-0.906,0.677-1.854,0.875-2.818
	C38.898,26.033,39,25.016,39,23.999c0-1.016-0.102-2.032-0.304-3.019C38.499,20.016,38.204,19.067,37.821,18.161 M24.001,11.19
	c3.243,0,6.203,1.209,8.461,3.197c-0.032,0.049-1.856,2.828-6.692,4.638c-2.19-4.023-4.595-7.219-4.788-7.474
	C21.95,11.317,22.96,11.19,24.001,11.19 M20.935,11.562c-0.001,0.001-0.003,0.002-0.003,0.002s-0.015,0.004-0.039,0.009
	C20.906,11.569,20.92,11.567,20.935,11.562 M18.535,12.414c0.17,0.229,2.54,3.44,4.757,7.381c-6.15,1.636-11.488,1.571-11.827,1.565
	C12.298,17.391,14.962,14.101,18.535,12.414 M14.474,32.56c-2.04-2.27-3.282-5.271-3.282-8.562c0-0.136,0.005-0.271,0.01-0.404
	c0.226,0.004,6.555,0.148,13.151-1.826c0.367,0.719,0.719,1.449,1.039,2.177c-0.169,0.048-0.337,0.099-0.505,0.153
	c-6.912,2.234-10.418,8.455-10.418,8.455S14.473,32.558,14.474,32.56 M24.001,36.81c-2.97,0-5.697-1.02-7.871-2.715l-0.001,0.004
	c0,0-0.119-0.088-0.288-0.225c0.094,0.077,0.193,0.145,0.289,0.22c0.024-0.05,2.489-5.365,10.051-7.998
	c0.028-0.012,0.057-0.021,0.085-0.028c1.803,4.684,2.547,8.607,2.736,9.727C27.466,36.448,25.775,36.81,24.001,36.81 M31.159,34.625
	c-0.13-0.774-0.813-4.532-2.494-9.15c4.136-0.661,7.72,0.473,7.984,0.559C36.078,29.603,34.034,32.682,31.159,34.625 M27.885,23.453
	c-0.091-0.22-0.182-0.438-0.276-0.662c-0.267-0.626-0.554-1.248-0.852-1.857c5.059-2.064,7.112-5.035,7.138-5.07
	c1.795,2.182,2.882,4.97,2.911,8.009C36.621,23.832,32.286,22.899,27.885,23.453"/>
</svg>
