<?xml version="1.0" encoding="utf-8"?>
<!-- Generator: Adobe Illustrator 16.2.0, SVG Export Plug-In . SVG Version: 6.00 Build 0)  -->
<!DOCTYPE svg PUBLIC "-//W3C//DTD SVG 1.1//EN" "http://www.w3.org/Graphics/SVG/1.1/DTD/svg11.dtd">
<svg version="1.1" id="svg__facebook" xmlns="http://www.w3.org/2000/svg" xmlns:xlink="http://www.w3.org/1999/xlink" x="0px"
	 y="0px" width="48px" height="48px" viewBox="0 0 48 48" enable-background="new 0 0 48 48" xml:space="preserve">
<path fill="#3C5B9B" d="M48.001,24c0,13.254-10.746,24-23.998,24C10.745,48-0.001,37.253-0.001,24c0-13.256,10.746-24,24.004-24
	C37.255,0,48.001,10.744,48.001,24"/>
<path fill="#FFFFFF" d="M20,39h6V24h4.453L31,18h-4.768v-2.398c0-1.169,0.779-1.442,1.326-1.442h3.366V9.018L26.289,9
	c-5.145,0-6.314,3.834-6.314,6.288V18H17v6h3V39z"/>
<path fill="#3C5B9B" d="M48.001,24c0,13.254-10.746,24-23.998,24C10.745,48-0.001,37.253-0.001,24c0-13.256,10.746-24,24.004-24
	C37.255,0,48.001,10.744,48.001,24"/>
<path fill="#FFFFFF" d="M20,39h6V24h4.453L31,18h-4.768v-2.398c0-1.169,0.779-1.442,1.326-1.442h3.366V9.018L26.289,9
	c-5.145,0-6.314,3.834-6.314,6.288V18H17v6h3V39z"/>
<path fill="#3C5B9B" d="M24.003,0C10.745,0-0.001,10.744-0.001,24c0,13.254,10.746,24,24.004,24c13.252,0,23.998-10.746,23.998-24
	C48.001,10.744,37.255,0,24.003,0z M30.453,24H26v15h-6V24h-3v-6h2.975v-2.712c0-2.455,1.169-6.288,6.314-6.288l4.635,0.019v5.141
	h-3.366c-0.547,0-1.326,0.273-1.326,1.442V18H31L30.453,24z"/>
</svg>
