<?xml version="1.0" encoding="utf-8"?>
<!-- Generator: Adobe Illustrator 16.2.0, SVG Export Plug-In . SVG Version: 6.00 Build 0)  -->
<!DOCTYPE svg PUBLIC "-//W3C//DTD SVG 1.1//EN" "http://www.w3.org/Graphics/SVG/1.1/DTD/svg11.dtd">
<svg version="1.1" id="svg__googleplus" xmlns="http://www.w3.org/2000/svg" xmlns:xlink="http://www.w3.org/1999/xlink" x="0px"
	 y="0px" width="48px" height="48px" viewBox="0 0 48 48" enable-background="new 0 0 48 48" xml:space="preserve">
<path fill="#F63D27" d="M48,24c0,13.254-10.746,24-24,24C10.744,48,0,37.253,0,24C0,10.744,10.744,0,24,0C37.254,0,48,10.744,48,24"
	/>
<path fill="#FFFFFF" d="M31.938,29.166h1.289c0.346,0,0.625-0.279,0.625-0.626v-4.532h4.524c0.343,0,0.625-0.282,0.625-0.628v-1.29
	c0-0.346-0.282-0.628-0.625-0.628h-4.524V16.93c0-0.345-0.279-0.626-0.625-0.626h-1.289c-0.346,0-0.627,0.282-0.627,0.626v4.531
	h-4.523c-0.344,0-0.625,0.282-0.625,0.628v1.29c0,0.346,0.281,0.628,0.625,0.628h4.523v4.532
	C31.311,28.886,31.592,29.166,31.938,29.166"/>
<path fill="#FFFFFF" d="M14.119,37.059c1.145,0.292,2.375,0.44,3.653,0.44c1.148,0,2.242-0.15,3.253-0.444
	c3.155-0.916,5.194-3.242,5.194-5.929c0-2.577-0.826-4.119-3.045-5.692c-0.951-0.675-1.817-1.664-1.832-1.969
	c0-0.554,0.049-0.817,1.289-1.787c1.603-1.256,2.486-2.909,2.486-4.657c0-1.583-0.482-2.99-1.306-3.978h0.638
	c0.133,0,0.262-0.041,0.367-0.117l1.78-1.292c0.22-0.158,0.314-0.442,0.228-0.7C26.74,10.675,26.5,10.5,26.229,10.5h-7.958
	c-0.871,0-1.755,0.153-2.623,0.452c-2.9,1.002-4.927,3.477-4.927,6.021c0,3.6,2.783,6.329,6.506,6.415
	c-0.073,0.286-0.11,0.567-0.11,0.843c0,0.555,0.141,1.08,0.43,1.588c-0.035,0.002-0.067,0.002-0.104,0.002
	c-3.546,0-6.75,1.743-7.964,4.34C9.16,30.833,9,31.515,9,32.188c0,0.656,0.168,1.286,0.496,1.88
	C10.262,35.437,11.902,36.5,14.119,37.059 M14.828,16.875c-0.172-1.319,0.104-2.503,0.76-3.253c0.424-0.485,0.978-0.739,1.599-0.739
	l0.073,0.002c1.758,0.051,3.439,2.013,3.75,4.375c0.174,1.323-0.119,2.565-0.783,3.325c-0.424,0.485-0.971,0.739-1.62,0.739h-0.002
	h-0.027C16.855,21.274,15.137,19.232,14.828,16.875 M18.209,27.813l0.072,0.003c0.59,0.005,1.164,0.094,1.707,0.26
	c0.186,0.127,0.366,0.251,0.539,0.368c1.254,0.856,2.082,1.423,2.315,2.331c0.053,0.227,0.08,0.456,0.08,0.677
	c0,2.334-1.738,3.518-5.166,3.518c-2.6,0-4.633-1.597-4.633-3.636C13.123,29.459,15.5,27.813,18.209,27.813"/>
<path fill="#F63D27" d="M48,24c0,13.254-10.746,24-24,24C10.744,48,0,37.253,0,24C0,10.744,10.744,0,24,0C37.254,0,48,10.744,48,24"
	/>
<path fill="#FFFFFF" d="M31.938,29.166h1.289c0.346,0,0.625-0.279,0.625-0.626v-4.532h4.524c0.343,0,0.625-0.282,0.625-0.628v-1.29
	c0-0.346-0.282-0.628-0.625-0.628h-4.524V16.93c0-0.345-0.279-0.626-0.625-0.626h-1.289c-0.346,0-0.627,0.282-0.627,0.626v4.531
	h-4.523c-0.344,0-0.625,0.282-0.625,0.628v1.29c0,0.346,0.281,0.628,0.625,0.628h4.523v4.532
	C31.311,28.886,31.592,29.166,31.938,29.166"/>
<path fill="#FFFFFF" d="M14.119,37.059c1.145,0.292,2.375,0.44,3.653,0.44c1.148,0,2.242-0.15,3.253-0.444
	c3.155-0.916,5.194-3.242,5.194-5.929c0-2.577-0.826-4.119-3.045-5.692c-0.951-0.675-1.817-1.664-1.832-1.969
	c0-0.554,0.049-0.817,1.289-1.787c1.603-1.256,2.486-2.909,2.486-4.657c0-1.583-0.482-2.99-1.306-3.978h0.638
	c0.133,0,0.262-0.041,0.367-0.117l1.78-1.292c0.22-0.158,0.314-0.442,0.228-0.7C26.74,10.675,26.5,10.5,26.229,10.5h-7.958
	c-0.871,0-1.755,0.153-2.623,0.452c-2.9,1.002-4.927,3.477-4.927,6.021c0,3.6,2.783,6.329,6.506,6.415
	c-0.073,0.286-0.11,0.567-0.11,0.843c0,0.555,0.141,1.08,0.43,1.588c-0.035,0.002-0.067,0.002-0.104,0.002
	c-3.546,0-6.75,1.743-7.964,4.34C9.16,30.833,9,31.515,9,32.188c0,0.656,0.168,1.286,0.496,1.88
	C10.262,35.437,11.902,36.5,14.119,37.059 M14.828,16.875c-0.172-1.319,0.104-2.503,0.76-3.253c0.424-0.485,0.978-0.739,1.599-0.739
	l0.073,0.002c1.758,0.051,3.439,2.013,3.75,4.375c0.174,1.323-0.119,2.565-0.783,3.325c-0.424,0.485-0.971,0.739-1.62,0.739h-0.002
	h-0.027C16.855,21.274,15.137,19.232,14.828,16.875 M18.209,27.813l0.072,0.003c0.59,0.005,1.164,0.094,1.707,0.26
	c0.186,0.127,0.366,0.251,0.539,0.368c1.254,0.856,2.082,1.423,2.315,2.331c0.053,0.227,0.08,0.456,0.08,0.677
	c0,2.334-1.738,3.518-5.166,3.518c-2.6,0-4.633-1.597-4.633-3.636C13.123,29.459,15.5,27.813,18.209,27.813"/>
<g>
	<path fill="#F63D27" d="M18.605,21.325h0.002c0.649,0,1.196-0.254,1.62-0.739c0.664-0.76,0.957-2.002,0.783-3.325
		c-0.311-2.362-1.992-4.324-3.75-4.375l-0.073-0.002c-0.621,0-1.175,0.254-1.599,0.739c-0.656,0.75-0.932,1.934-0.76,3.253
		c0.309,2.357,2.027,4.398,3.75,4.449H18.605z"/>
	<path fill="#F63D27" d="M20.527,28.444c-0.173-0.117-0.353-0.241-0.539-0.368c-0.543-0.166-1.117-0.254-1.707-0.26l-0.072-0.003
		c-2.709,0-5.086,1.646-5.086,3.521c0,2.039,2.033,3.636,4.633,3.636c3.428,0,5.166-1.184,5.166-3.518
		c0-0.222-0.027-0.45-0.08-0.677C22.609,29.867,21.781,29.3,20.527,28.444z"/>
	<path fill="#F63D27" d="M24,0C10.744,0,0,10.744,0,24c0,13.254,10.744,24,24,24c13.254,0,24-10.746,24-24C48,10.744,37.254,0,24,0z
		 M21.025,37.055c-1.011,0.294-2.105,0.444-3.253,0.444c-1.278,0-2.508-0.148-3.653-0.44c-2.217-0.56-3.857-1.622-4.623-2.991
		C9.168,33.474,9,32.844,9,32.188c0-0.673,0.16-1.354,0.479-2.028c1.214-2.597,4.418-4.34,7.964-4.34c0.037,0,0.069,0,0.104-0.002
		c-0.289-0.508-0.43-1.033-0.43-1.588c0-0.275,0.037-0.557,0.11-0.843c-3.723-0.086-6.506-2.815-6.506-6.415
		c0-2.544,2.027-5.019,4.927-6.021c0.868-0.299,1.752-0.452,2.623-0.452h7.958c0.271,0,0.511,0.176,0.595,0.435
		c0.086,0.258-0.008,0.542-0.228,0.7l-1.78,1.292c-0.105,0.076-0.234,0.117-0.367,0.117h-0.638c0.824,0.988,1.306,2.395,1.306,3.978
		c0,1.748-0.883,3.401-2.486,4.657c-1.24,0.97-1.289,1.233-1.289,1.787c0.015,0.305,0.881,1.294,1.832,1.969
		c2.219,1.573,3.045,3.115,3.045,5.692C26.219,33.813,24.18,36.139,21.025,37.055z M39,23.379c0,0.346-0.282,0.628-0.625,0.628
		h-4.524v4.532c0,0.347-0.279,0.626-0.625,0.626h-1.289c-0.346,0-0.627-0.279-0.627-0.626v-4.532h-4.523
		c-0.344,0-0.625-0.282-0.625-0.628v-1.29c0-0.346,0.281-0.628,0.625-0.628h4.523V16.93c0-0.345,0.281-0.626,0.627-0.626h1.289
		c0.346,0,0.625,0.282,0.625,0.626v4.531h4.524c0.343,0,0.625,0.282,0.625,0.628V23.379z"/>
</g>
</svg>
