<?xml version="1.0" encoding="utf-8"?>
<!-- Generator: Adobe Illustrator 16.2.0, SVG Export Plug-In . SVG Version: 6.00 Build 0)  -->
<!DOCTYPE svg PUBLIC "-//W3C//DTD SVG 1.1//EN" "http://www.w3.org/Graphics/SVG/1.1/DTD/svg11.dtd">
<svg version="1.1" id="Icons_-_60px" xmlns="http://www.w3.org/2000/svg" xmlns:xlink="http://www.w3.org/1999/xlink" x="0px"
	 y="0px" width="36.484px" height="58.766px" viewBox="0 0 36.484 58.766" enable-background="new 0 0 36.484 58.766"
	 xml:space="preserve">
<g>
	
		<polygon fill="none" stroke="#f7600e" stroke-width="2.0247" stroke-linecap="round" stroke-linejoin="round" stroke-miterlimit="10" points="
		7.904,5.259 5.624,1.061 3.343,5.259 1.062,9.46 1.06,9.46 1.06,57.753 10.169,57.753 10.169,9.46 10.185,9.46 	"/>
	<rect x="1.06" y="10.172" width="9.109" height="2.025" fill="#f7600e"/>
	<rect x="1.06" y="51.679" width="9.109" height="2.025" fill="#f7600e"/>
	<g>
		
			<rect x="21.308" y="1.061" fill="none" stroke="#f7600e" stroke-width="2.0247" stroke-linecap="round" stroke-linejoin="round" stroke-miterlimit="10" width="14.173" height="56.693"/>
		<path d="M26.37,8.147c0,0.559-0.324,1.013-0.724,1.013h-3.615c-0.399,0-0.723-0.454-0.723-1.013l0,0
			c0-0.559,0.324-1.012,0.723-1.012h3.615C26.045,7.135,26.37,7.588,26.37,8.147L26.37,8.147z" fill="#f7600e"/>
		<path d="M28.394,15.234c0,0.559-0.453,1.012-1.012,1.012H22.32c-0.559,0-1.012-0.453-1.012-1.012l0,0
			c0-0.559,0.453-1.013,1.012-1.013h5.062C27.941,14.221,28.394,14.675,28.394,15.234L28.394,15.234z" fill="#f7600e"/>
		<path d="M26.37,22.32c0,0.559-0.324,1.013-0.724,1.013h-3.615c-0.399,0-0.723-0.454-0.723-1.013l0,0
			c0-0.559,0.324-1.012,0.723-1.012h3.615C26.045,21.308,26.37,21.761,26.37,22.32L26.37,22.32z" fill="#f7600e"/>
		<path d="M28.394,29.407c0,0.559-0.453,1.012-1.012,1.012H22.32c-0.559,0-1.012-0.453-1.012-1.012l0,0
			c0-0.559,0.453-1.013,1.012-1.013h5.062C27.941,28.395,28.394,28.848,28.394,29.407L28.394,29.407z" fill="#f7600e"/>
		<path d="M26.37,36.494c0,0.559-0.324,1.012-0.724,1.012h-3.615c-0.399,0-0.723-0.453-0.723-1.012l0,0
			c0-0.559,0.324-1.012,0.723-1.012h3.615C26.045,35.481,26.37,35.935,26.37,36.494L26.37,36.494z" fill="#f7600e"/>
		<path d="M28.394,43.58c0,0.559-0.453,1.013-1.012,1.013H22.32c-0.559,0-1.012-0.454-1.012-1.013l0,0
			c0-0.559,0.453-1.012,1.012-1.012h5.062C27.941,42.568,28.394,43.021,28.394,43.58L28.394,43.58z" fill="#f7600e"/>
		<path d="M26.37,50.667c0,0.559-0.324,1.012-0.724,1.012h-3.615c-0.399,0-0.723-0.453-0.723-1.012l0,0
			c0-0.559,0.324-1.013,0.723-1.013h3.615C26.045,49.654,26.37,50.108,26.37,50.667L26.37,50.667z" fill="#f7600e"/>
	</g>
</g>
</svg>
