<?xml version="1.0" encoding="utf-8"?>
<!-- Generator: Adobe Illustrator 16.2.0, SVG Export Plug-In . SVG Version: 6.00 Build 0)  -->
<!DOCTYPE svg PUBLIC "-//W3C//DTD SVG 1.1//EN" "http://www.w3.org/Graphics/SVG/1.1/DTD/svg11.dtd">
<svg version="1.1" id="svg__twitter" xmlns="http://www.w3.org/2000/svg" xmlns:xlink="http://www.w3.org/1999/xlink" x="0px"
	 y="0px" width="48px" height="48px" viewBox="0 0 48 48" enable-background="new 0 0 48 48" xml:space="preserve">
<path fill="#2DAAE1" d="M48.003,24c0,13.254-10.746,24-24,24C10.746,48,0,37.253,0,24C0,10.744,10.746,0,24.003,0
	C37.257,0,48.003,10.744,48.003,24"/>
<path fill="#FFFFFF" d="M38.175,12.442c-1.189,0.695-2.508,1.2-3.91,1.472C33.144,12.736,31.544,12,29.773,12
	c-3.399,0-6.155,2.714-6.155,6.06c0,0.475,0.055,0.936,0.159,1.381c-5.116-0.253-9.651-2.665-12.687-6.331
	c-0.529,0.894-0.834,1.935-0.834,3.047c0,2.101,1.089,3.955,2.739,5.042c-1.007-0.032-1.958-0.304-2.788-0.758v0.076
	c0,2.935,2.122,5.384,4.939,5.941c-0.518,0.138-1.061,0.212-1.623,0.212c-0.397,0-0.782-0.037-1.158-0.107
	c0.785,2.406,3.056,4.159,5.75,4.207c-2.108,1.625-4.76,2.594-7.646,2.594c-0.498,0-0.986-0.029-1.469-0.085
	C11.726,34.997,14.962,36,18.437,36c11.322,0,17.511-9.231,17.511-17.237c0-0.264-0.003-0.525-0.015-0.785
	c1.201-0.854,2.246-1.92,3.07-3.137c-1.103,0.482-2.289,0.808-3.535,0.953C36.74,15.044,37.714,13.858,38.175,12.442"/>
<path fill="#2DAAE1" d="M48.003,24c0,13.254-10.746,24-24,24C10.746,48,0,37.253,0,24C0,10.744,10.746,0,24.003,0
	C37.257,0,48.003,10.744,48.003,24"/>
<path fill="#FFFFFF" d="M38.175,12.442c-1.189,0.695-2.508,1.2-3.91,1.472C33.144,12.736,31.544,12,29.773,12
	c-3.399,0-6.155,2.714-6.155,6.06c0,0.475,0.055,0.936,0.159,1.381c-5.116-0.253-9.651-2.665-12.687-6.331
	c-0.529,0.894-0.834,1.935-0.834,3.047c0,2.101,1.089,3.955,2.739,5.042c-1.007-0.032-1.958-0.304-2.788-0.758v0.076
	c0,2.935,2.122,5.384,4.939,5.941c-0.518,0.138-1.061,0.212-1.623,0.212c-0.397,0-0.782-0.037-1.158-0.107
	c0.785,2.406,3.056,4.159,5.75,4.207c-2.108,1.625-4.76,2.594-7.646,2.594c-0.498,0-0.986-0.029-1.469-0.085
	C11.726,34.997,14.962,36,18.437,36c11.322,0,17.511-9.231,17.511-17.237c0-0.264-0.003-0.525-0.015-0.785
	c1.201-0.854,2.246-1.92,3.07-3.137c-1.103,0.482-2.289,0.808-3.535,0.953C36.74,15.044,37.714,13.858,38.175,12.442"/>
<path fill="#2DAAE1" d="M24.003,0C10.746,0,0,10.744,0,24c0,13.254,10.746,24,24.003,24c13.254,0,24-10.746,24-24
	C48.003,10.744,37.257,0,24.003,0z M35.933,17.977c0.012,0.26,0.015,0.521,0.015,0.785C35.948,26.768,29.759,36,18.437,36
	c-3.475,0-6.711-1.003-9.437-2.722c0.483,0.056,0.971,0.085,1.469,0.085c2.886,0,5.538-0.969,7.646-2.594
	c-2.694-0.048-4.965-1.801-5.75-4.207c0.376,0.07,0.761,0.107,1.158,0.107c0.562,0,1.105-0.074,1.623-0.212
	c-2.817-0.558-4.939-3.007-4.939-5.941V20.44c0.83,0.454,1.781,0.726,2.788,0.758c-1.65-1.087-2.739-2.941-2.739-5.042
	c0-1.112,0.305-2.153,0.834-3.047c3.036,3.666,7.571,6.078,12.687,6.331c-0.104-0.445-0.159-0.906-0.159-1.381
	c0-3.346,2.756-6.06,6.155-6.06c1.771,0,3.371,0.736,4.492,1.914c1.402-0.271,2.721-0.777,3.91-1.472
	c-0.461,1.416-1.435,2.603-2.707,3.352c1.246-0.146,2.432-0.471,3.535-0.953C38.179,16.057,37.134,17.124,35.933,17.977z"/>
</svg>
