<?xml version="1.0" encoding="utf-8"?><!DOCTYPE svg PUBLIC "-//W3C//DTD SVG 1.1//EN" "http://www.w3.org/Graphics/SVG/1.1/DTD/svg11.dtd"><svg xmlns="http://www.w3.org/2000/svg" xmlns:xlink="http://www.w3.org/1999/xlink"><symbol viewBox="0 0 34.828 58.719" id="app" xmlns="http://www.w3.org/2000/svg"><path fill="none" stroke="#f7600e" stroke-width="1.989" stroke-miterlimit="10" d="M33.852 54.904a2.819 2.819 0 0 1-2.819 2.819H3.849a2.819 2.819 0 0 1-2.819-2.819V3.85a2.819 2.819 0 0 1 2.819-2.819h27.184a2.819 2.819 0 0 1 2.819 2.819v51.054z"/><circle cx="17.44" cy="51.258" r="1.492" fill="#f7600e"/><path d="M24.9 6.998a.995.995 0 0 1-.995.995h-12.93a.995.995 0 0 1 0-1.99h12.93c.55 0 .995.446.995.995z" fill="#f7600e"/></symbol><symbol viewBox="0 0 500 500" id="arrowdown" xmlns="http://www.w3.org/2000/svg"><g fill="#fff"><path d="M500 250C500 112.143 387.857 0 250 0S0 112.143 0 250s112.143 250 250 250 250-112.143 250-250zm-465 0c0-118.571 96.429-215 215-215s215 96.429 215 215-96.429 215-215 215S35 368.571 35 250z"/><path d="M335.918 234.898c3.367-3.367 5.103-7.857 5.103-12.348s-1.735-8.979-5.103-12.347c-6.836-6.837-17.959-6.837-24.795 0l-61.225 61.225-61.225-61.225c-6.836-6.837-17.959-6.837-24.796 0-6.836 6.837-6.836 17.959 0 24.796l73.572 73.571c3.265 3.266 7.755 5.103 12.347 5.103s9.081-1.837 12.347-5.103l73.775-73.672z"/></g></symbol><symbol viewBox="0 0 48 48" id="behance" xmlns="http://www.w3.org/2000/svg"><path fill="#2D9AD2" d="M48 24c0 13.254-10.746 24-23.999 24C10.746 48 0 37.253 0 24 0 10.744 10.746 0 24.001 0 37.254 0 48 10.744 48 24"/><path fill="#FFF" d="M13.149 34h5.416s5.91-.219 5.91-6.195c0 0 .258-4.864-3.484-4.864 0 0 2.838-.222 2.838-3.725 0-3.505-2.323-5.216-5.264-5.216H9.118v20h4.031zm0-16.518h5.416s1.314 0 1.314 2.035c0 2.037-.773 2.333-1.65 2.333h-5.08v-4.368zm0 7.389h5.416s1.959-.029 1.959 2.689c0 2.29-1.463 2.527-2.232 2.544-.145.002-.266 0-.348 0h-4.795v-5.233zM32.357 18.982c-7.154 0-7.148 7.524-7.148 7.524s-.492 7.488 7.148 7.488c0 0 6.367.382 6.367-5.21H35.45s.109 2.107-2.982 2.107c0 0-3.276.231-3.276-3.408h9.641c0 .001 1.054-8.501-6.476-8.501m-3.202 5.889s.4-3.02 3.275-3.02 2.836 3.02 2.836 3.02h-6.111zM28.354 15.153h7.676V17h-7.676z"/><path fill="#2D9AD2" d="M48 24c0 13.254-10.746 24-23.999 24C10.746 48 0 37.253 0 24 0 10.744 10.746 0 24.001 0 37.254 0 48 10.744 48 24"/><path fill="#FFF" d="M13.149 34h5.416s5.91-.219 5.91-6.195c0 0 .258-4.864-3.484-4.864 0 0 2.838-.222 2.838-3.725 0-3.505-2.323-5.216-5.264-5.216H9.118v20h4.031zm0-16.518h5.416s1.314 0 1.314 2.035c0 2.037-.773 2.333-1.65 2.333h-5.08v-4.368zm0 7.389h5.416s1.959-.029 1.959 2.689c0 2.29-1.463 2.527-2.232 2.544-.145.002-.266 0-.348 0h-4.795v-5.233zM32.357 18.982c-7.154 0-7.148 7.524-7.148 7.524s-.492 7.488 7.148 7.488c0 0 6.367.382 6.367-5.21H35.45s.109 2.107-2.982 2.107c0 0-3.276.231-3.276-3.408h9.641c0 .001 1.054-8.501-6.476-8.501m-3.202 5.889s.4-3.02 3.275-3.02 2.836 3.02 2.836 3.02h-6.111zM28.354 15.153h7.676V17h-7.676z"/><path fill="#2D9AD2" d="M48 24c0 13.254-10.746 24-23.999 24C10.746 48 0 37.253 0 24 0 10.744 10.746 0 24.001 0 37.254 0 48 10.744 48 24"/><path fill="#FFF" d="M13.149 34h5.416s5.91-.219 5.91-6.195c0 0 .258-4.864-3.484-4.864 0 0 2.838-.222 2.838-3.725 0-3.505-2.323-5.216-5.264-5.216H9.118v20h4.031zm0-16.518h5.416s1.314 0 1.314 2.035c0 2.037-.773 2.333-1.65 2.333h-5.08v-4.368zm0 7.389h5.416s1.959-.029 1.959 2.689c0 2.29-1.463 2.527-2.232 2.544-.145.002-.266 0-.348 0h-4.795v-5.233zM32.357 18.982c-7.154 0-7.148 7.524-7.148 7.524s-.492 7.488 7.148 7.488c0 0 6.367.382 6.367-5.21H35.45s.109 2.107-2.982 2.107c0 0-3.276.231-3.276-3.408h9.641c0 .001 1.054-8.501-6.476-8.501m-3.202 5.889s.4-3.02 3.275-3.02 2.836 3.02 2.836 3.02h-6.111zM28.354 15.153h7.676V17h-7.676z"/></symbol><symbol viewBox="0 0 22 22" id="close" xmlns="http://www.w3.org/2000/svg"><path d="M0 0l22 22M22 0L0 22"/></symbol><symbol viewBox="0 0 48 48" id="dribbble" xmlns="http://www.w3.org/2000/svg"><path fill="#F872A3" d="M48.002 24c0 13.254-10.746 24-24.001 24S0 37.253 0 24C0 10.744 10.746 0 24.001 0s24.001 10.744 24.001 24"/><path fill="#FFF" d="M37.821 18.161a15.067 15.067 0 0 0-5.432-6.598 14.995 14.995 0 0 0-2.549-1.383 15.013 15.013 0 0 0-8.86-.873 14.857 14.857 0 0 0-5.366 2.257 15.037 15.037 0 0 0-6.309 9.417 15.164 15.164 0 0 0 0 6.041c.198.964.493 1.912.877 2.818.374.889.84 1.748 1.382 2.55a15.093 15.093 0 0 0 6.598 5.431A14.933 14.933 0 0 0 24.001 39a15.028 15.028 0 0 0 5.839-1.18 15.065 15.065 0 0 0 4.768-3.213 15.047 15.047 0 0 0 3.213-4.768c.383-.906.677-1.854.875-2.818a15.12 15.12 0 0 0 0-6.041 14.942 14.942 0 0 0-.875-2.819m-13.82-6.971c3.243 0 6.203 1.209 8.461 3.197-.032.049-1.856 2.828-6.692 4.638a65.255 65.255 0 0 0-4.788-7.474 12.83 12.83 0 0 1 3.019-.361m-3.066.372l-.003.002-.039.009c.013-.004.027-.006.042-.011m-2.4.852c.17.229 2.54 3.44 4.757 7.381-6.15 1.636-11.488 1.571-11.827 1.565a12.826 12.826 0 0 1 7.07-8.946M14.474 32.56a12.767 12.767 0 0 1-3.282-8.562c0-.136.005-.271.01-.404.226.004 6.555.148 13.151-1.826.367.719.719 1.449 1.039 2.177-.169.048-.337.099-.505.153-6.912 2.234-10.418 8.455-10.418 8.455l.005.007m9.527 4.25c-2.97 0-5.697-1.02-7.871-2.715l-.001.004s-.119-.088-.288-.225c.094.077.193.145.289.22.024-.05 2.489-5.365 10.051-7.998a.563.563 0 0 1 .085-.028c1.803 4.684 2.547 8.607 2.736 9.727a12.755 12.755 0 0 1-5.001 1.015m7.158-2.185c-.13-.774-.813-4.532-2.494-9.15 4.136-.661 7.72.473 7.984.559a12.827 12.827 0 0 1-5.49 8.591m-3.274-11.172l-.276-.662a39.463 39.463 0 0 0-.852-1.857c5.059-2.064 7.112-5.035 7.138-5.07a12.76 12.76 0 0 1 2.911 8.009c-.185-.041-4.52-.974-8.921-.42"/><path fill="#F872A3" d="M48.002 24c0 13.254-10.746 24-24.001 24S0 37.253 0 24C0 10.744 10.746 0 24.001 0s24.001 10.744 24.001 24"/><path fill="#FFF" d="M37.821 18.161a15.067 15.067 0 0 0-5.432-6.598 14.995 14.995 0 0 0-2.549-1.383 15.013 15.013 0 0 0-8.86-.873 14.857 14.857 0 0 0-5.366 2.257 15.037 15.037 0 0 0-6.309 9.417 15.164 15.164 0 0 0 0 6.041c.198.964.493 1.912.877 2.818.374.889.84 1.748 1.382 2.55a15.093 15.093 0 0 0 6.598 5.431A14.933 14.933 0 0 0 24.001 39a15.028 15.028 0 0 0 5.839-1.18 15.065 15.065 0 0 0 4.768-3.213 15.047 15.047 0 0 0 3.213-4.768c.383-.906.677-1.854.875-2.818a15.12 15.12 0 0 0 0-6.041 14.942 14.942 0 0 0-.875-2.819m-13.82-6.971c3.243 0 6.203 1.209 8.461 3.197-.032.049-1.856 2.828-6.692 4.638a65.255 65.255 0 0 0-4.788-7.474 12.83 12.83 0 0 1 3.019-.361m-3.066.372l-.003.002-.039.009c.013-.004.027-.006.042-.011m-2.4.852c.17.229 2.54 3.44 4.757 7.381-6.15 1.636-11.488 1.571-11.827 1.565a12.826 12.826 0 0 1 7.07-8.946M14.474 32.56a12.767 12.767 0 0 1-3.282-8.562c0-.136.005-.271.01-.404.226.004 6.555.148 13.151-1.826.367.719.719 1.449 1.039 2.177-.169.048-.337.099-.505.153-6.912 2.234-10.418 8.455-10.418 8.455l.005.007m9.527 4.25c-2.97 0-5.697-1.02-7.871-2.715l-.001.004s-.119-.088-.288-.225c.094.077.193.145.289.22.024-.05 2.489-5.365 10.051-7.998a.563.563 0 0 1 .085-.028c1.803 4.684 2.547 8.607 2.736 9.727a12.755 12.755 0 0 1-5.001 1.015m7.158-2.185c-.13-.774-.813-4.532-2.494-9.15 4.136-.661 7.72.473 7.984.559a12.827 12.827 0 0 1-5.49 8.591m-3.274-11.172l-.276-.662a39.463 39.463 0 0 0-.852-1.857c5.059-2.064 7.112-5.035 7.138-5.07a12.76 12.76 0 0 1 2.911 8.009c-.185-.041-4.52-.974-8.921-.42"/><path fill="#F872A3" d="M48.002 24c0 13.254-10.746 24-24.001 24S0 37.253 0 24C0 10.744 10.746 0 24.001 0s24.001 10.744 24.001 24"/><path fill="#FFF" d="M37.821 18.161a15.067 15.067 0 0 0-5.432-6.598 14.995 14.995 0 0 0-2.549-1.383 15.013 15.013 0 0 0-8.86-.873 14.857 14.857 0 0 0-5.366 2.257 15.037 15.037 0 0 0-6.309 9.417 15.164 15.164 0 0 0 0 6.041c.198.964.493 1.912.877 2.818.374.889.84 1.748 1.382 2.55a15.093 15.093 0 0 0 6.598 5.431A14.933 14.933 0 0 0 24.001 39a15.028 15.028 0 0 0 5.839-1.18 15.065 15.065 0 0 0 4.768-3.213 15.047 15.047 0 0 0 3.213-4.768c.383-.906.677-1.854.875-2.818a15.12 15.12 0 0 0 0-6.041 14.942 14.942 0 0 0-.875-2.819m-13.82-6.971c3.243 0 6.203 1.209 8.461 3.197-.032.049-1.856 2.828-6.692 4.638a65.255 65.255 0 0 0-4.788-7.474 12.83 12.83 0 0 1 3.019-.361m-3.066.372l-.003.002-.039.009c.013-.004.027-.006.042-.011m-2.4.852c.17.229 2.54 3.44 4.757 7.381-6.15 1.636-11.488 1.571-11.827 1.565a12.826 12.826 0 0 1 7.07-8.946M14.474 32.56a12.767 12.767 0 0 1-3.282-8.562c0-.136.005-.271.01-.404.226.004 6.555.148 13.151-1.826.367.719.719 1.449 1.039 2.177-.169.048-.337.099-.505.153-6.912 2.234-10.418 8.455-10.418 8.455l.005.007m9.527 4.25c-2.97 0-5.697-1.02-7.871-2.715l-.001.004s-.119-.088-.288-.225c.094.077.193.145.289.22.024-.05 2.489-5.365 10.051-7.998a.563.563 0 0 1 .085-.028c1.803 4.684 2.547 8.607 2.736 9.727a12.755 12.755 0 0 1-5.001 1.015m7.158-2.185c-.13-.774-.813-4.532-2.494-9.15 4.136-.661 7.72.473 7.984.559a12.827 12.827 0 0 1-5.49 8.591m-3.274-11.172l-.276-.662a39.463 39.463 0 0 0-.852-1.857c5.059-2.064 7.112-5.035 7.138-5.07a12.76 12.76 0 0 1 2.911 8.009c-.185-.041-4.52-.974-8.921-.42"/></symbol><symbol viewBox="0 0 48 48" id="facebook" xmlns="http://www.w3.org/2000/svg"><path fill="#3C5B9B" d="M48.001 24c0 13.254-10.746 24-23.998 24C10.745 48-.001 37.253-.001 24c0-13.256 10.746-24 24.004-24 13.252 0 23.998 10.744 23.998 24"/><path fill="#FFF" d="M20 39h6V24h4.453L31 18h-4.768v-2.398c0-1.169.779-1.442 1.326-1.442h3.366V9.018L26.289 9c-5.145 0-6.314 3.834-6.314 6.288V18H17v6h3v15z"/><path fill="#3C5B9B" d="M48.001 24c0 13.254-10.746 24-23.998 24C10.745 48-.001 37.253-.001 24c0-13.256 10.746-24 24.004-24 13.252 0 23.998 10.744 23.998 24"/><path fill="#FFF" d="M20 39h6V24h4.453L31 18h-4.768v-2.398c0-1.169.779-1.442 1.326-1.442h3.366V9.018L26.289 9c-5.145 0-6.314 3.834-6.314 6.288V18H17v6h3v15z"/><path fill="#3C5B9B" d="M24.003 0C10.745 0-.001 10.744-.001 24c0 13.254 10.746 24 24.004 24 13.252 0 23.998-10.746 23.998-24 0-13.256-10.746-24-23.998-24zm6.45 24H26v15h-6V24h-3v-6h2.975v-2.712c0-2.455 1.169-6.288 6.314-6.288l4.635.019v5.141h-3.366c-.547 0-1.326.273-1.326 1.442V18H31l-.547 6z"/></symbol><symbol viewBox="0 0 48 48" id="googleplus" xmlns="http://www.w3.org/2000/svg"><path fill="#F63D27" d="M48 24c0 13.254-10.746 24-24 24C10.744 48 0 37.253 0 24 0 10.744 10.744 0 24 0c13.254 0 24 10.744 24 24"/><path fill="#FFF" d="M31.938 29.166h1.289a.624.624 0 0 0 .625-.626v-4.532h4.524a.628.628 0 0 0 .625-.628v-1.29a.628.628 0 0 0-.625-.628h-4.524V16.93a.625.625 0 0 0-.625-.626h-1.289a.628.628 0 0 0-.627.626v4.531h-4.523a.628.628 0 0 0-.625.628v1.29c0 .346.281.628.625.628h4.523v4.532c0 .347.281.627.627.627"/><path fill="#FFF" d="M14.119 37.059c1.145.292 2.375.44 3.653.44 1.148 0 2.242-.15 3.253-.444 3.155-.916 5.194-3.242 5.194-5.929 0-2.577-.826-4.119-3.045-5.692-.951-.675-1.817-1.664-1.832-1.969 0-.554.049-.817 1.289-1.787 1.603-1.256 2.486-2.909 2.486-4.657 0-1.583-.482-2.99-1.306-3.978h.638a.626.626 0 0 0 .367-.117l1.78-1.292a.626.626 0 1 0-.367-1.134h-7.958c-.871 0-1.755.153-2.623.452-2.9 1.002-4.927 3.477-4.927 6.021 0 3.6 2.783 6.329 6.506 6.415-.073.286-.11.567-.11.843 0 .555.141 1.08.43 1.588-.035.002-.067.002-.104.002-3.546 0-6.75 1.743-7.964 4.34A4.71 4.71 0 0 0 9 32.188c0 .656.168 1.286.496 1.88.766 1.369 2.406 2.432 4.623 2.991m.709-20.184c-.172-1.319.104-2.503.76-3.253a2.076 2.076 0 0 1 1.599-.739l.073.002c1.758.051 3.439 2.013 3.75 4.375.174 1.323-.119 2.565-.783 3.325a2.077 2.077 0 0 1-1.62.739H18.578c-1.723-.05-3.441-2.092-3.75-4.449m3.381 10.938l.072.003c.59.005 1.164.094 1.707.26l.539.368c1.254.856 2.082 1.423 2.315 2.331.053.227.08.456.08.677 0 2.334-1.738 3.518-5.166 3.518-2.6 0-4.633-1.597-4.633-3.636 0-1.875 2.377-3.521 5.086-3.521"/><path fill="#F63D27" d="M48 24c0 13.254-10.746 24-24 24C10.744 48 0 37.253 0 24 0 10.744 10.744 0 24 0c13.254 0 24 10.744 24 24"/><path fill="#FFF" d="M31.938 29.166h1.289a.624.624 0 0 0 .625-.626v-4.532h4.524a.628.628 0 0 0 .625-.628v-1.29a.628.628 0 0 0-.625-.628h-4.524V16.93a.625.625 0 0 0-.625-.626h-1.289a.628.628 0 0 0-.627.626v4.531h-4.523a.628.628 0 0 0-.625.628v1.29c0 .346.281.628.625.628h4.523v4.532c0 .347.281.627.627.627"/><path fill="#FFF" d="M14.119 37.059c1.145.292 2.375.44 3.653.44 1.148 0 2.242-.15 3.253-.444 3.155-.916 5.194-3.242 5.194-5.929 0-2.577-.826-4.119-3.045-5.692-.951-.675-1.817-1.664-1.832-1.969 0-.554.049-.817 1.289-1.787 1.603-1.256 2.486-2.909 2.486-4.657 0-1.583-.482-2.99-1.306-3.978h.638a.626.626 0 0 0 .367-.117l1.78-1.292a.626.626 0 1 0-.367-1.134h-7.958c-.871 0-1.755.153-2.623.452-2.9 1.002-4.927 3.477-4.927 6.021 0 3.6 2.783 6.329 6.506 6.415-.073.286-.11.567-.11.843 0 .555.141 1.08.43 1.588-.035.002-.067.002-.104.002-3.546 0-6.75 1.743-7.964 4.34A4.71 4.71 0 0 0 9 32.188c0 .656.168 1.286.496 1.88.766 1.369 2.406 2.432 4.623 2.991m.709-20.184c-.172-1.319.104-2.503.76-3.253a2.076 2.076 0 0 1 1.599-.739l.073.002c1.758.051 3.439 2.013 3.75 4.375.174 1.323-.119 2.565-.783 3.325a2.077 2.077 0 0 1-1.62.739H18.578c-1.723-.05-3.441-2.092-3.75-4.449m3.381 10.938l.072.003c.59.005 1.164.094 1.707.26l.539.368c1.254.856 2.082 1.423 2.315 2.331.053.227.08.456.08.677 0 2.334-1.738 3.518-5.166 3.518-2.6 0-4.633-1.597-4.633-3.636 0-1.875 2.377-3.521 5.086-3.521"/><g fill="#F63D27"><path d="M18.605 21.325h.002c.649 0 1.196-.254 1.62-.739.664-.76.957-2.002.783-3.325-.311-2.362-1.992-4.324-3.75-4.375l-.073-.002c-.621 0-1.175.254-1.599.739-.656.75-.932 1.934-.76 3.253.309 2.357 2.027 4.398 3.75 4.449h.027zM20.527 28.444l-.539-.368a6.044 6.044 0 0 0-1.707-.26l-.072-.003c-2.709 0-5.086 1.646-5.086 3.521 0 2.039 2.033 3.636 4.633 3.636 3.428 0 5.166-1.184 5.166-3.518 0-.222-.027-.45-.08-.677-.233-.908-1.061-1.475-2.315-2.331z"/><path d="M24 0C10.744 0 0 10.744 0 24c0 13.254 10.744 24 24 24 13.254 0 24-10.746 24-24C48 10.744 37.254 0 24 0zm-2.975 37.055a11.65 11.65 0 0 1-3.253.444c-1.278 0-2.508-.148-3.653-.44-2.217-.56-3.857-1.622-4.623-2.991A3.847 3.847 0 0 1 9 32.188c0-.673.16-1.354.479-2.028 1.214-2.597 4.418-4.34 7.964-4.34.037 0 .069 0 .104-.002a3.152 3.152 0 0 1-.43-1.588c0-.275.037-.557.11-.843-3.723-.086-6.506-2.815-6.506-6.415 0-2.544 2.027-5.019 4.927-6.021a8.054 8.054 0 0 1 2.623-.452h7.958a.627.627 0 0 1 .367 1.135l-1.78 1.292a.626.626 0 0 1-.367.117h-.638c.824.988 1.306 2.395 1.306 3.978 0 1.748-.883 3.401-2.486 4.657-1.24.97-1.289 1.233-1.289 1.787.015.305.881 1.294 1.832 1.969 2.219 1.573 3.045 3.115 3.045 5.692 0 2.687-2.039 5.013-5.194 5.929zM39 23.379a.628.628 0 0 1-.625.628h-4.524v4.532a.624.624 0 0 1-.625.626h-1.289a.626.626 0 0 1-.627-.626v-4.532h-4.523a.628.628 0 0 1-.625-.628v-1.29c0-.346.281-.628.625-.628h4.523V16.93c0-.345.281-.626.627-.626h1.289c.346 0 .625.282.625.626v4.531h4.524c.343 0 .625.282.625.628v1.29z"/></g></symbol><symbol viewBox="0 0 36.484 58.766" id="logo" xmlns="http://www.w3.org/2000/svg"><path fill="none" stroke="#f7600e" stroke-width="2.025" stroke-linecap="round" stroke-linejoin="round" stroke-miterlimit="10" d="M7.904 5.259l-2.28-4.198-2.281 4.198L1.062 9.46H1.06v48.293h9.109V9.46h.016z"/><path fill="#f7600e" d="M1.06 10.172h9.109v2.025H1.06zM1.06 51.679h9.109v2.025H1.06z"/><path fill="none" stroke="#f7600e" stroke-width="2.025" stroke-linecap="round" stroke-linejoin="round" stroke-miterlimit="10" d="M21.308 1.061h14.173v56.693H21.308z"/><path d="M26.37 8.147c0 .559-.324 1.013-.724 1.013h-3.615c-.399 0-.723-.454-.723-1.013 0-.559.324-1.012.723-1.012h3.615c.399 0 .724.453.724 1.012zM28.394 15.234c0 .559-.453 1.012-1.012 1.012H22.32a1.013 1.013 0 0 1 0-2.025h5.062c.559 0 1.012.454 1.012 1.013zM26.37 22.32c0 .559-.324 1.013-.724 1.013h-3.615c-.399 0-.723-.454-.723-1.013 0-.559.324-1.012.723-1.012h3.615c.399 0 .724.453.724 1.012zM28.394 29.407c0 .559-.453 1.012-1.012 1.012H22.32a1.013 1.013 0 0 1 0-2.025h5.062a1.013 1.013 0 0 1 1.012 1.013zM26.37 36.494c0 .559-.324 1.012-.724 1.012h-3.615c-.399 0-.723-.453-.723-1.012 0-.559.324-1.012.723-1.012h3.615c.399-.001.724.453.724 1.012zM28.394 43.58c0 .559-.453 1.013-1.012 1.013H22.32a1.012 1.012 0 1 1 0-2.025h5.062c.559 0 1.012.453 1.012 1.012zM26.37 50.667c0 .559-.324 1.012-.724 1.012h-3.615c-.399 0-.723-.453-.723-1.012 0-.559.324-1.013.723-1.013h3.615c.399 0 .724.454.724 1.013z" fill="#f7600e"/></symbol><symbol viewBox="0 0 26 20" id="menu" xmlns="http://www.w3.org/2000/svg"><path d="M0 0h26v2H0zM0 9h26v2H0zM0 18h26v2H0z"/></symbol><symbol viewBox="0 0 56.125 58.797" id="print" xmlns="http://www.w3.org/2000/svg"><path fill="none" stroke="#f7600e" stroke-width="2.055" stroke-linecap="round" stroke-linejoin="round" stroke-miterlimit="10" d="M12.909 1.082h30.378v13.07H12.909zM12.909 33.932h30.378v23.843H12.909z"/><path fill="none" stroke="#f7600e" stroke-width="2.055" stroke-miterlimit="10" d="M52.056 14.152H4.14c-1.691 0-3.063 1.448-3.063 3.235v25.674c0 1.786 1.372 3.234 3.063 3.234h8.769V33.932h30.378v12.363h8.77c1.69 0 3.063-1.448 3.063-3.234V17.387c0-1.787-1.373-3.235-3.064-3.235z"/><circle cx="40.984" cy="22.32" r="1.542" fill="#f7600e"/><circle cx="46.122" cy="22.32" r="1.542" fill="#f7600e"/></symbol><symbol viewBox="0 0 48 48" id="twitter" xmlns="http://www.w3.org/2000/svg"><path fill="#2DAAE1" d="M48.003 24c0 13.254-10.746 24-24 24C10.746 48 0 37.253 0 24 0 10.744 10.746 0 24.003 0c13.254 0 24 10.744 24 24"/><path fill="#FFF" d="M38.175 12.442a12.442 12.442 0 0 1-3.91 1.472A6.186 6.186 0 0 0 29.773 12c-3.399 0-6.155 2.714-6.155 6.06 0 .475.055.936.159 1.381A17.568 17.568 0 0 1 11.09 13.11a5.964 5.964 0 0 0-.834 3.047c0 2.101 1.089 3.955 2.739 5.042a6.217 6.217 0 0 1-2.788-.758v.076c0 2.935 2.122 5.384 4.939 5.941a6.291 6.291 0 0 1-2.781.105c.785 2.406 3.056 4.159 5.75 4.207a12.479 12.479 0 0 1-7.646 2.594c-.498 0-.986-.029-1.469-.085A17.646 17.646 0 0 0 18.437 36c11.322 0 17.511-9.231 17.511-17.237 0-.264-.003-.525-.015-.785a12.37 12.37 0 0 0 3.07-3.137 12.389 12.389 0 0 1-3.535.953 6.093 6.093 0 0 0 2.707-3.352"/><path fill="#2DAAE1" d="M48.003 24c0 13.254-10.746 24-24 24C10.746 48 0 37.253 0 24 0 10.744 10.746 0 24.003 0c13.254 0 24 10.744 24 24"/><path fill="#FFF" d="M38.175 12.442a12.442 12.442 0 0 1-3.91 1.472A6.186 6.186 0 0 0 29.773 12c-3.399 0-6.155 2.714-6.155 6.06 0 .475.055.936.159 1.381A17.568 17.568 0 0 1 11.09 13.11a5.964 5.964 0 0 0-.834 3.047c0 2.101 1.089 3.955 2.739 5.042a6.217 6.217 0 0 1-2.788-.758v.076c0 2.935 2.122 5.384 4.939 5.941a6.291 6.291 0 0 1-2.781.105c.785 2.406 3.056 4.159 5.75 4.207a12.479 12.479 0 0 1-7.646 2.594c-.498 0-.986-.029-1.469-.085A17.646 17.646 0 0 0 18.437 36c11.322 0 17.511-9.231 17.511-17.237 0-.264-.003-.525-.015-.785a12.37 12.37 0 0 0 3.07-3.137 12.389 12.389 0 0 1-3.535.953 6.093 6.093 0 0 0 2.707-3.352"/><path fill="#2DAAE1" d="M24.003 0C10.746 0 0 10.744 0 24c0 13.254 10.746 24 24.003 24 13.254 0 24-10.746 24-24 0-13.256-10.746-24-24-24zm11.93 17.977c.012.26.015.521.015.785C35.948 26.768 29.759 36 18.437 36A17.638 17.638 0 0 1 9 33.278c.483.056.971.085 1.469.085 2.886 0 5.538-.969 7.646-2.594-2.694-.048-4.965-1.801-5.75-4.207a6.306 6.306 0 0 0 2.781-.105c-2.817-.558-4.939-3.007-4.939-5.941v-.076c.83.454 1.781.726 2.788.758-1.65-1.087-2.739-2.941-2.739-5.042 0-1.112.305-2.153.834-3.047a17.568 17.568 0 0 0 12.687 6.331 6.054 6.054 0 0 1-.159-1.381c0-3.346 2.756-6.06 6.155-6.06 1.771 0 3.371.736 4.492 1.914a12.418 12.418 0 0 0 3.91-1.472 6.09 6.09 0 0 1-2.707 3.352 12.422 12.422 0 0 0 3.535-.953 12.353 12.353 0 0 1-3.07 3.137z"/></symbol><symbol viewBox="0 0 57.25 47.178" id="web" xmlns="http://www.w3.org/2000/svg"><path fill="none" stroke="#f7600e" stroke-width="2.007" stroke-linejoin="bevel" stroke-miterlimit="10" d="M56.217 33.73c0 1.884-1.347 3.413-3.008 3.413H4.038c-1.661 0-3.008-1.529-3.008-3.413V4.433c0-1.884 1.347-3.413 3.008-3.413h49.171c1.661 0 3.008 1.529 3.008 3.413V33.73z"/><path fill="#f7600e" d="M.277 27.109H56.97v2.007H.277zM27.62 37.143h2.007v9.031H27.62z"/><path fill="#f7600e" d="M18.087 45.17h21.072v2.007H18.087z"/><circle cx="28.623" cy="32.627" r="1.505" fill="#f7600e"/></symbol></svg>